<svg width="46" height="48" viewBox="0 0 46 48" fill="none" xmlns="http://www.w3.org/2000/svg">
<path fill-rule="evenodd" clip-rule="evenodd" d="M36 0C37.933 0 39.5 1.567 39.5 3.5V6.5H42.5C44.433 6.5 46 8.067 46 10C46 11.933 44.433 13.5 42.5 13.5H39.5V16.5C39.5 18.433 37.933 20 36 20C34.067 20 32.5 18.433 32.5 16.5V13.5H29.5C27.567 13.5 26 11.933 26 10C26 8.067 27.567 6.5 29.5 6.5H32.5V3.5C32.5 1.567 34.067 0 36 0ZM25 2.85379C26.7006 2.85379 28.2028 3.70276 29.1061 5H29C27.4281 5 26.0256 5.72538 25.109 6.85966C25.0732 6.85578 25.0368 6.85379 25 6.85379H14C13.4477 6.85379 13 7.30151 13 7.85379V10.8538C13 11.4061 13.4477 11.8538 14 11.8538H24.3549C24.9656 13.3827 26.3094 14.5396 27.9518 14.8899C27.1245 15.496 26.104 15.8538 25 15.8538H14C11.581 15.8538 9.56329 14.136 9.10002 11.8538H5C4.44772 11.8538 4 12.3015 4 12.8538V42.8538C4 43.4061 4.44772 43.8538 5 43.8538H34C34.5523 43.8538 35 43.4061 35 42.8538V21.9C35.3231 21.9656 35.6575 22 36 22C37.1256 22 38.1643 21.6281 39 21.0004V42.8538C39 45.6152 36.7614 47.8538 34 47.8538H5C2.23858 47.8538 0 45.6152 0 42.8538V12.8538C0 10.0924 2.23858 7.85379 5 7.85379L9 7.85379C9 5.09237 11.2386 2.85379 14 2.85379H25ZM31 19.8538C31.4545 19.8538 31.8736 20.0054 32.2095 20.2608C32.3404 20.4128 32.4802 20.5568 32.6282 20.692C32.8622 21.0195 33 21.4206 33 21.8538C33 22.9584 32.1046 23.8538 31 23.8538H20C18.8954 23.8538 18 22.9584 18 21.8538C18 20.7492 18.8954 19.8538 20 19.8538H31ZM18 37.8538C18 36.7492 18.8954 35.8538 20 35.8538L31 35.8538C32.1046 35.8538 33 36.7492 33 37.8538C33 38.9583 32.1046 39.8538 31 39.8538L20 39.8538C18.8954 39.8538 18 38.9584 18 37.8538ZM20 27.8538C18.8954 27.8538 18 28.7492 18 29.8538C18 30.9584 18.8954 31.8538 20 31.8538H31C32.1046 31.8538 33 30.9584 33 29.8538C33 28.7492 32.1046 27.8538 31 27.8538H20ZM8.99907 24.481C9.40925 24.8681 9.94955 25.0576 10.4871 25.0493C11.0205 25.0972 11.5713 24.9494 12.0083 24.5958L16.3146 21.1118C17.1733 20.417 17.2675 19.1909 16.5249 18.3732C15.7824 17.5554 14.4843 17.4557 13.6256 18.1505L10.6557 20.5533L9.51963 19.481C8.71638 18.7228 7.41405 18.7228 6.6108 19.481C5.80756 20.2391 5.80756 21.4684 6.6108 22.2266L8.99907 24.481ZM10.0696 40.5892C9.72726 40.5079 9.40243 40.3403 9.13251 40.086L6.65439 37.7517C5.85005 36.9941 5.83789 35.754 6.62722 34.9819C7.41656 34.2099 8.70849 34.1982 9.51283 34.9558L10.7867 36.1558L13.6456 33.8037C14.4986 33.1019 15.7865 33.2009 16.5222 34.0247C17.2579 34.8486 17.1629 36.0854 16.3099 36.7872L12.1062 40.2458C11.5251 40.7239 10.7422 40.8304 10.0696 40.5892ZM8.93898 32.3169C9.61346 32.9643 10.6426 33.0638 11.4261 32.6152C11.6689 32.5381 11.9002 32.4153 12.1062 32.2458L16.3099 28.7872C17.1629 28.0855 17.2579 26.8486 16.5222 26.0248C15.7865 25.2009 14.4986 25.1019 13.6456 25.8037L10.5653 28.3381L9.46657 27.2835C8.6697 26.5186 7.37771 26.5186 6.58084 27.2835C5.78397 28.0484 5.78397 29.2885 6.58084 30.0534L8.93898 32.3169Z" fill="#408EC6"/>
</svg>
