<svg width="43" height="44" viewBox="0 0 43 44" fill="none" xmlns="http://www.w3.org/2000/svg">
<path fill-rule="evenodd" clip-rule="evenodd" d="M39.3932 5.50781C39.3932 6.99522 38.8154 8.34491 37.8763 9.33594H38.9149C41.124 9.33594 42.9149 11.1268 42.9149 13.3359V20H25V13.3359C25 11.1268 26.7909 9.33594 29 9.33594H30.1151C29.1761 8.34491 28.5983 6.99522 28.5983 5.50781C28.5983 2.46593 31.0148 0 33.9957 0C36.9766 0 39.3932 2.46593 39.3932 5.50781ZM2 3.88571H26.3512C26.1242 4.54328 26 5.2558 26 5.99997C26 6.58306 26.0762 7.14673 26.2185 7.67975C25.9775 7.72747 25.7444 7.79682 25.5211 7.88571H4V40H35V21.9999H39V42C39 43.1046 38.1046 44 37 44H2C0.89543 44 0 43.1046 0 42V5.88571C0 4.78114 0.895431 3.88571 2 3.88571ZM23 21.9429V21.9999H30.1905C31.0652 22.2136 31.7143 23.0024 31.7143 23.9429C31.7143 25.0474 30.8188 25.9429 29.7143 25.9429H10.0286C8.924 25.9429 8.02856 25.0474 8.02856 23.9429C8.02856 22.8383 8.924 21.9429 10.0286 21.9429H23ZM23 15.9143H10.0286C8.924 15.9143 8.02856 15.0188 8.02856 13.9143C8.02856 12.8097 8.924 11.9143 10.0286 11.9143H23V15.9143ZM9.79999 32.2C8.69542 32.2 7.79999 33.0954 7.79999 34.2C7.79999 35.3046 8.69542 36.2 9.79999 36.2H29.9428C31.0474 36.2 31.9428 35.3046 31.9428 34.2C31.9428 33.0954 31.0474 32.2 29.9428 32.2H9.79999Z" fill="#408EC6"/>
</svg>
