<svg width="41" height="45" viewBox="0 0 41 45" fill="none" xmlns="http://www.w3.org/2000/svg">
<path fill-rule="evenodd" clip-rule="evenodd" d="M25.741 4.88574H2C0.895431 4.88574 0 5.78117 0 6.88574V43C0 44.1046 0.89543 45 2 45H37C38.1046 45 39 44.1046 39 43V22.3389H35.375C35.375 22.8172 35.2387 23.2661 35 23.6539V41H4V8.88574H23.5961C23.9995 7.38551 24.7423 6.02203 25.741 4.88574ZM23.1175 12.9143H10.0286C8.924 12.9143 8.02856 13.8097 8.02856 14.9143C8.02856 16.0189 8.924 16.9143 10.0286 16.9143H22.5405L22.9167 15.5896L23.1175 12.9143ZM29.6994 22.9429H10.0286C8.924 22.9429 8.02856 23.8383 8.02856 24.9429C8.02856 26.0475 8.924 26.9429 10.0286 26.9429H29.7143C30.8188 26.9429 31.7143 26.0475 31.7143 24.9429C31.7143 24.9283 31.7141 24.9138 31.7138 24.8993C30.7139 24.6368 29.9358 23.886 29.6994 22.9429ZM7.79999 35.2C7.79999 34.0955 8.69542 33.2 9.79999 33.2H29.9428C31.0474 33.2 31.9428 34.0955 31.9428 35.2C31.9428 36.3046 31.0474 37.2 29.9428 37.2H9.79999C8.69542 37.2 7.79999 36.3046 7.79999 35.2Z" fill="#408EC6"/>
<path fill-rule="evenodd" clip-rule="evenodd" d="M32.5303 3.57596C32.5663 3.56943 32.6024 3.56313 32.6386 3.55706C32.6738 3.56323 32.7089 3.56963 32.744 3.57625C33.2693 3.52343 33.6794 3.07998 33.6794 2.54076C33.6794 1.96596 33.2134 1.5 32.6386 1.5C32.0638 1.5 31.5978 1.96596 31.5978 2.54076C31.5978 3.07899 32.0064 3.52179 32.5303 3.57596ZM30.6668 4.14324C30.3111 3.70606 30.0978 3.14831 30.0978 2.54076C30.0978 1.13754 31.2354 0 32.6386 0C34.0418 0 35.1794 1.13754 35.1794 2.54076C35.1794 3.15715 34.9599 3.72227 34.5948 4.16223C37.248 5.36983 39.1045 7.95262 39.3139 10.9667L39.5833 14.8442L41 20.2337L34.625 20.2337C34.625 21.4073 33.6736 22.3587 32.5 22.3587C31.3264 22.3587 30.375 21.4073 30.375 20.2337L24 20.2337L25.4167 14.8442L25.6672 11.2392C25.8871 8.07405 27.8607 5.37038 30.6668 4.14324Z" fill="#408EC6"/>
</svg>
