<svg width="50" height="50" viewBox="0 0 50 50" fill="none" xmlns="http://www.w3.org/2000/svg">
<path d="M13 10C13 4.47715 17.4772 0 23 0H27C32.5228 0 37 4.47715 37 10V15C37 16.1046 36.1046 17 35 17H15C13.8954 17 13 16.1046 13 15V10Z" fill="black"/>
<path d="M3 40C3 34.4772 7.47715 30 13 30H37C42.5228 30 47 34.4772 47 40V50H3V40Z" fill="black"/>
<ellipse cx="25" cy="17.5" rx="10" ry="12.5" fill="#E4CDCD"/>
<path d="M16 12C16 6.47715 20.4772 2 26 2H35V2C35 7.52285 30.5228 12 25 12H16V12Z" fill="black"/>
</svg>
