<svg width="40" height="48" viewBox="0 0 40 48" fill="none" xmlns="http://www.w3.org/2000/svg">
<path fill-rule="evenodd" clip-rule="evenodd" d="M29 13.2024C29 16.099 27.7134 22.9374 25.5124 29.1227C24.5529 31.8193 23.4764 34.225 22.3584 36.0344C21.5849 36.0117 20.7979 36 20 36C18.8631 36 17.7483 36.0237 16.6632 36.0693C15.5375 34.256 14.4533 31.8366 13.4876 29.1227C11.2866 22.9374 10 16.099 10 13.2024C10 8.18779 14.1847 4 19.5 4C24.8153 4 29 8.18779 29 13.2024ZM13.3261 36.2852C9.54789 29.2711 7 17.7496 7 13.2024C7 6.46319 12.5964 1 19.5 1C26.4036 1 32 6.46319 32 13.2024C32 17.7327 29.4709 29.186 25.7158 36.2072C33.9764 36.822 40 38.7351 40 41C40 43.7614 31.0457 46 20 46C8.9543 46 0 43.7614 0 41C0 38.8236 5.56191 36.9721 13.3261 36.2852ZM15.1476 39.1542C11.8002 39.3718 8.85859 39.8066 6.58547 40.3749C5.76772 40.5793 5.07605 40.7915 4.50576 41C5.07605 41.2085 5.76772 41.4207 6.58547 41.6251C9.90445 42.4549 14.6486 43 20 43C25.3514 43 30.0955 42.4549 33.4145 41.6251C34.2323 41.4207 34.924 41.2085 35.4942 41C34.924 40.7915 34.2323 40.5793 33.4145 40.3749C30.9271 39.753 27.6392 39.291 23.8951 39.0986C22.5278 40.8927 21.0467 42 19.5 42C17.9693 42 16.5029 40.9156 15.1476 39.1542ZM26.0342 13.5021C26.0508 17.0931 23.1532 20.0177 19.5622 20.0342C15.9711 20.0508 13.0466 17.1532 13.03 13.5622C13.0134 9.97115 15.9111 7.04662 19.5021 7.03003C23.0931 7.01345 26.0177 9.9111 26.0342 13.5021ZM37.3095 40.0721C37.3121 40.0725 37.2986 40.0887 37.2614 40.1201C37.2884 40.0875 37.3069 40.0718 37.3095 40.0721ZM2.69049 40.0721C2.69305 40.0718 2.71165 40.0875 2.73857 40.1201C2.70137 40.0888 2.68792 40.0725 2.69049 40.0721ZM2.69049 41.9279C2.68792 41.9275 2.70137 41.9112 2.73857 41.8799C2.71165 41.9125 2.69305 41.9282 2.69049 41.9279ZM37.2614 41.8799C37.2986 41.9112 37.3121 41.9275 37.3095 41.9279C37.3069 41.9282 37.2884 41.9125 37.2614 41.8799Z" fill="#408EC6"/>
<path d="M23.9349 30.9978C23.9349 32.9307 21.433 38.9978 19.5 38.9978C17.567 38.9978 14.9349 32.9307 14.9349 30.9978C14.9349 29.0648 17.5019 27.4978 19.4349 27.4978C21.3679 27.4978 23.9349 29.0648 23.9349 30.9978Z" fill="white"/>
</svg>
