<svg width="32" height="41" viewBox="0 0 32 41" fill="none" xmlns="http://www.w3.org/2000/svg">
<path fill-rule="evenodd" clip-rule="evenodd" d="M16.421 6.69091C18.1414 6.69091 18.8947 5.53137 18.8947 4.84546C18.8947 4.15954 18.1414 3 16.421 3C14.7007 3 13.9474 4.15954 13.9474 4.84546C13.9474 5.53137 14.7007 6.69091 16.421 6.69091ZM21.8947 4.84546C21.8947 6.38167 21.0871 7.7509 19.8273 8.63863L21.0949 9.0793C20.4052 9.98976 20 11.1008 20 12.3C20 15.3878 22.6863 17.8909 26 17.8909C26.8762 17.8909 27.7085 17.7159 28.4588 17.4014C28.4856 17.5935 28.5069 17.7872 28.5225 17.9822L29.4737 29.8182L32 37.4577H20C19.9999 39.4141 18.209 41 16 41C13.7909 41 12 39.4141 12 37.4577H0L2.52632 29.8182L3.46528 18.1337C3.78901 14.1052 6.50576 10.6677 10.3504 9.42177L12.9377 8.58333C11.7221 7.69459 10.9474 6.35011 10.9474 4.84546C10.9474 2.16938 13.398 0 16.421 0C19.4441 0 21.8947 2.16938 21.8947 4.84546Z" fill="#408EC6"/>
<ellipse cx="26" cy="12.3" rx="4.4" ry="4.1" fill="#F11414"/>
</svg>
