<svg width="40" height="36" viewBox="0 0 40 36" fill="none" xmlns="http://www.w3.org/2000/svg">
<path fill-rule="evenodd" clip-rule="evenodd" d="M33 11C33 13.2091 31.2092 15 29 15C27.7625 15 26.6562 14.438 25.9225 13.5553C25.8829 13.4954 25.841 13.4366 25.7965 13.3788C25.7633 13.3355 25.7292 13.2935 25.6941 13.2525C25.2561 12.611 25 11.8354 25 11C25 8.79086 26.7909 7 29 7C31.2092 7 33 8.79086 33 11ZM18.753 15.0079C18.2669 13.766 18 12.4142 18 11C18 4.92487 22.9249 0 29 0C35.0752 0 40 4.92487 40 11C40 17.0751 35.0752 22 29 22C26.5153 22 24.2229 21.1761 22.3813 19.7867L14.6103 25.7583L16.4338 28.1314C17.1069 29.0072 16.9425 30.2628 16.0666 30.9359L10.5162 35.2011C9.64035 35.8742 8.38473 35.7098 7.71169 34.8339L5.88812 32.4609L5.03472 33.1167C3.72096 34.1262 1.83754 33.8796 0.827986 32.5659C-0.181572 31.2521 0.0650307 29.3687 1.37879 28.3591L18.753 15.0079Z" fill="#408EC6"/>
</svg>
