<svg width="32" height="41" viewBox="0 0 32 41" fill="none" xmlns="http://www.w3.org/2000/svg">
<path fill-rule="evenodd" clip-rule="evenodd" d="M18.8947 4.84546C18.8947 5.53137 18.1414 6.69091 16.421 6.69091C14.7007 6.69091 13.9474 5.53137 13.9474 4.84546C13.9474 4.15954 14.7007 3 16.421 3C18.1414 3 18.8947 4.15954 18.8947 4.84546ZM19.8273 8.63864C21.0871 7.75091 21.8947 6.38167 21.8947 4.84546C21.8947 2.16938 19.4441 0 16.421 0C13.398 0 10.9474 2.16938 10.9474 4.84546C10.9474 6.35012 11.7221 7.6946 12.9378 8.58333L10.3504 9.42178C6.50576 10.6677 3.78901 14.1053 3.46528 18.1337L2.52632 29.8182L0 37.4577H12C12 39.4141 13.7909 41 16 41C18.209 41 19.9999 39.4141 20 37.4577H32L29.4737 29.8182L28.5225 17.9822C28.205 14.0304 25.5829 10.6394 21.8382 9.33767L19.8273 8.63864Z" fill="#408EC6"/>
</svg>
