<svg width="25" height="21" viewBox="0 0 25 21" fill="none" xmlns="http://www.w3.org/2000/svg">
<path fill-rule="evenodd" clip-rule="evenodd" d="M6.15311 11.6757C5.31585 12.3961 5.22118 13.6589 5.94165 14.4962L7.50246 16.31C8.22293 17.1473 9.48572 17.2419 10.323 16.5215L23.3287 5.32984C24.166 4.60937 24.2607 3.34659 23.5402 2.50933L21.9794 0.695509C21.2589 -0.141747 19.9961 -0.236421 19.1589 0.484048L6.15311 11.6757ZM4.20594 14.8329C3.65135 14.2066 2.64218 14.3257 2.24861 15.0639L0.144602 19.0104C-0.351244 19.9404 0.506889 21.0121 1.52286 20.7316L6.02158 19.4896C6.87729 19.2534 7.18915 18.202 6.60066 17.5374L4.20594 14.8329Z" fill="#408EC6"/>
</svg>
