<svg width="49" height="49" viewBox="0 0 49 49" fill="none" xmlns="http://www.w3.org/2000/svg">
<path fill-rule="evenodd" clip-rule="evenodd" d="M21.6091 1.14024C21.418 0.694381 21.91 0.264963 22.3259 0.514536L25.6328 2.49865C25.8441 2.62546 26.1164 2.57934 26.2742 2.39L28.1159 0.179908C28.3158 -0.0599695 28.6842 -0.059969 28.8841 0.179908L30.6159 2.25804C30.8158 2.49792 31.1842 2.49792 31.3841 2.25804L33.1159 0.179908C33.3158 -0.0599695 33.6842 -0.059969 33.8841 0.179908L35.7259 2.39C35.8836 2.57934 36.1559 2.62546 36.3672 2.49865L39.6741 0.514537C40.09 0.264963 40.582 0.69438 40.3909 1.14024L38.1299 6.41593C38.0511 6.59978 37.8703 6.71898 37.6703 6.71898H24.3297C24.1297 6.71898 23.9489 6.59978 23.8701 6.41593L21.6091 1.14024ZM25 8.71898C24.4477 8.71898 24 9.16669 24 9.71898C24 10.2713 24.4477 10.719 25 10.719H37C37.5523 10.719 38 10.2713 38 9.71898C38 9.16669 37.5523 8.71898 37 8.71898H25ZM25.146 14.6555C23.3936 16.9398 21.8785 19.9451 20.7845 23.0214C19.7833 25.8368 19.1814 28.58 19.035 30.7365L24.7888 33.6134C24.9277 33.6828 25.0808 33.719 25.2361 33.719H35.8C37.1255 33.719 38.2 34.7935 38.2 36.119C38.2 37.4444 37.1255 38.519 35.8 38.519H34.6H25.7086C25.4715 38.519 25.2221 38.59 25.0985 38.7923C25.0338 38.8982 25 39.0074 25 39.1189C25 39.2305 25.0338 39.3397 25.0986 39.4456C25.2222 39.6479 25.4715 39.719 25.7086 39.719H36.0495C36.2493 39.719 36.4446 39.6591 36.6101 39.5471L42.3334 35.6728C42.7653 34.4348 43 33.1043 43 31.719C43 29.4509 42.376 26.2847 41.2155 23.0215C40.1215 19.9451 38.6065 16.9399 36.8541 14.6556L25.146 14.6555ZM44.8164 33.992C44.9372 33.2522 45 32.4929 45 31.719C45 26.5804 42.2315 18.1132 38.1047 13.0114C37.92 12.783 37.6408 12.6556 37.3471 12.6556L24.653 12.6555C24.3593 12.6555 24.0801 12.7829 23.8953 13.0113C20.1729 17.6132 17.5556 24.9534 17.0784 30.119H12.8C12.2477 30.119 11.8 30.5667 11.8 31.119V38.519V42.319C11.8 42.8712 12.2477 43.319 12.8 43.319H15.2255C15.3409 43.319 15.4555 43.339 15.5642 43.3781L30.2358 48.6598C30.3444 48.699 30.459 48.719 30.5745 48.719H31H31.2927C31.493 48.719 31.6886 48.6589 31.8542 48.5464L34.9284 46.4604C34.9324 46.4577 34.9379 46.4587 34.9407 46.4628C34.9434 46.4668 34.9489 46.4679 34.953 46.4651L47.8642 37.7253C47.9771 37.6488 48.0815 37.5644 48.1771 37.4733C48.1844 37.4663 48.1923 37.4599 48.2007 37.4542L48.3732 37.3371C48.3865 37.3281 48.3873 37.3088 48.3747 37.2988C48.3643 37.2904 48.3628 37.275 48.3713 37.2646C49.0314 36.4644 49.1172 35.2951 48.5063 34.3925C47.7632 33.2948 46.2711 33.0073 45.1734 33.7503L44.8164 33.992ZM31 31.719C34.3137 31.719 37 29.0327 37 25.719C37 22.4053 34.3137 19.719 31 19.719C27.6863 19.719 25 22.4053 25 25.719C25 29.0327 27.6863 31.719 31 31.719ZM27.5915 27.251C27.5308 27.2726 27.442 27.2856 27.325 27.29V27.719H29.2555V27.2185C29.0258 27.2185 28.8417 27.225 28.703 27.238C28.7203 27.0906 28.729 26.8935 28.729 26.6465V25.951H29.067C29.1407 26.029 29.2317 26.1546 29.34 26.328L29.821 27.108C29.9163 27.2683 30.0008 27.3983 30.0745 27.498C30.1482 27.5933 30.2218 27.667 30.2955 27.719H31.368V27.29C31.225 27.2856 31.1037 27.2401 31.004 27.1535C30.9087 27.0668 30.7873 26.9086 30.64 26.679L30.3345 26.224C30.2782 26.133 30.2088 26.0506 30.1265 25.977C30.0442 25.899 29.964 25.8448 29.886 25.8145V25.808C30.263 25.6996 30.5468 25.5306 30.7375 25.301C30.9325 25.067 31.03 24.8005 31.03 24.5015C31.03 24.0248 30.8675 23.6803 30.5425 23.468C30.2218 23.2556 29.7647 23.1516 29.171 23.156L27.325 23.169V23.6695L27.8125 23.65C27.7952 23.7973 27.7865 23.9923 27.7865 24.235V26.7245C27.7865 26.8935 27.7692 27.017 27.7345 27.095C27.6998 27.173 27.6522 27.225 27.5915 27.251ZM29.808 25.249C29.652 25.405 29.3963 25.483 29.041 25.483C28.963 25.483 28.859 25.4743 28.729 25.457V24.1245C28.729 23.9121 28.7637 23.7735 28.833 23.7085C28.9023 23.6435 29.0128 23.611 29.1645 23.611C29.3855 23.611 29.587 23.6695 29.769 23.7865C29.9553 23.9035 30.0485 24.1418 30.0485 24.5015C30.0485 24.8395 29.9683 25.0886 29.808 25.249ZM31.938 28.8175C31.8903 28.9085 31.7841 28.954 31.6195 28.954V29.3765H33.3225V28.8825C33.1795 28.8825 33.0408 28.889 32.9065 28.902C32.9195 28.707 32.926 28.5163 32.926 28.33V27.706C33.1426 27.784 33.3355 27.823 33.5045 27.823C33.8208 27.823 34.1003 27.745 34.343 27.589C34.59 27.433 34.7806 27.2185 34.915 26.9455C35.0493 26.6681 35.1165 26.3561 35.1165 26.0095C35.1165 25.6801 35.0601 25.392 34.9475 25.145C34.8391 24.8936 34.6853 24.7008 34.486 24.5665C34.291 24.4321 34.0635 24.365 33.8035 24.365C33.4915 24.365 33.2011 24.482 32.9325 24.716H32.926C32.913 24.5816 32.9021 24.4776 32.8935 24.404H32.575C32.5186 24.456 32.406 24.5015 32.237 24.5405C32.068 24.5795 31.847 24.599 31.574 24.599V25.093L32.0355 25.0735C32.0181 25.2468 32.0095 25.431 32.0095 25.626V28.3755C32.0095 28.5791 31.9856 28.7265 31.938 28.8175ZM34.161 26.107C34.161 26.926 33.8988 27.3355 33.3745 27.3355C33.2878 27.3355 33.2011 27.3246 33.1145 27.303C33.0321 27.277 32.9693 27.2488 32.926 27.2185V25.236C32.9866 25.1493 33.0646 25.08 33.16 25.028C33.2596 24.976 33.3636 24.95 33.472 24.95C33.7016 24.95 33.8728 25.0626 33.9855 25.288C34.1025 25.5133 34.161 25.7863 34.161 26.107ZM0 29.719C0 28.6144 0.895431 27.719 2 27.719H8C9.10457 27.719 10 28.6144 10 29.719V43.719C10 44.8235 9.10457 45.719 8 45.719H2C0.89543 45.719 0 44.8235 0 43.719V29.719Z" fill="#408EC6"/>
</svg>
