<svg width="51" height="51" viewBox="0 0 51 51" fill="none" xmlns="http://www.w3.org/2000/svg">
<path fill-rule="evenodd" clip-rule="evenodd" d="M28 17.5C28 23.299 23.299 28 17.5 28C11.701 28 7 23.299 7 17.5C7 11.701 11.701 7 17.5 7C23.299 7 28 11.701 28 17.5ZM25.8255 32.8966C23.3496 34.2382 20.5138 35 17.5 35C7.83502 35 0 27.165 0 17.5C0 7.83502 7.83502 0 17.5 0C27.165 0 35 7.83502 35 17.5C35 20.5138 34.2382 23.3496 32.8966 25.8255L47.1113 40.0402C49.0639 41.9929 49.0639 45.1587 47.1113 47.1113C45.1587 49.0639 41.9929 49.0639 40.0402 47.1113L25.8255 32.8966Z" fill="#408EC6"/>
</svg>
