<?xml version="1.0" encoding="utf-8"?>
<!-- Svg Vector Icons : http://www.onlinewebfonts.com/icon -->
<!DOCTYPE svg PUBLIC "-//W3C//DTD SVG 1.1//EN" "http://www.w3.org/Graphics/SVG/1.1/DTD/svg11.dtd">
<svg version="1.1" xmlns="http://www.w3.org/2000/svg" xmlns:xlink="http://www.w3.org/1999/xlink" x="0px" y="0px" viewBox="0 0 1000 1000" enable-background="new 0 0 1000 1000" xml:space="preserve">
<metadata> Svg Vector Icons : http://www.onlinewebfonts.com/icon </metadata>
<g><g transform="translate(0.000000,511.000000) scale(0.100000,-0.100000)"><path d="M4299.1,4980.4c-112.9-40.5-238.6-159.8-289.7-277c-32-72.4-76.7-274.8-127.8-598.7c-42.6-268.4-83.1-509.2-87.4-534.7c-12.8-51.1-330.2-191.7-375-166.2c-14.9,8.5-210.9,147-434.6,308.9c-223.7,159.8-441,308.9-479.3,330.2c-106.5,57.5-364.3,55.4-477.2-6.4c-132.1-70.3-916.1-869.2-967.2-986.4c-55.4-121.4-57.5-300.4-4.3-415.4c21.3-46.9,172.6-272.7,334.5-500.6c164-228,304.6-428.2,315.3-443.1c12.8-21.3-93.7-326-125.7-362.2c-2.1-4.3-255.7-49-558.2-100.1c-605-100.1-679.6-125.7-798.9-266.3C108.5,828.2,100,774.9,100,110.2c0-664.7,8.5-718,123.6-852.2c119.3-140.6,193.9-166.2,798.9-266.3c302.5-51.1,556-95.9,558.2-100.1c32-36.2,138.5-340.9,125.7-362.2c-10.7-14.9-151.3-215.2-315.3-443.1c-161.9-228-313.2-453.8-334.5-500.7c-53.3-115-51.1-294,4.3-415.4C1112-2947,1896-3745.9,2028-3816.2c112.9-61.8,370.7-63.9,477.2-6.4c40.5,21.3,255.7,170.4,479.3,330.2c223.7,161.9,419.7,300.4,434.6,308.9c21.3,12.8,326-93.8,362.2-125.7c4.3-2.1,49-255.7,100.1-560.3c51.1-304.6,108.7-590.1,127.8-630.6c49-102.2,200.3-234.3,304.6-264.2c55.4-17,287.6-25.6,698.8-25.6c573.1,0,622.1,4.3,711.6,44.7c119.3,53.3,204.5,132.1,259.9,240.8c27.7,53.3,74.6,279.1,134.2,637c51.1,302.5,95.9,556.1,100.1,558.2c36.2,32,340.9,138.5,362.2,125.7c14.9-10.7,215.2-151.3,443.1-315.3c228-161.9,453.8-313.2,500.7-334.5c115-53.3,294-51.1,415.4,4.2c138.5,61.8,922.5,843.7,992.8,988.5c61.8,132.1,68.2,302.5,10.7,428.2c-21.3,46.9-172.6,272.7-336.6,500.7c-164.1,227.9-304.6,426.1-313.2,441c-12.8,21.3,93.8,326,125.7,362.2c2.1,4.3,255.7,49,558.2,100.1c605,100.1,679.6,125.7,798.9,266.3c115,134.2,123.6,187.5,123.6,852.2c0,664.7-8.5,718-123.6,852.2c-119.3,140.6-193.9,166.2-798.9,266.3c-302.5,51.1-556.1,95.9-558.2,100.1c-2.1,4.3-36.2,81-74.6,172.6c-81,193.9-117.2,108.7,283.3,662.6c151.3,210.9,294,421.8,315.3,468.7c53.3,117.2,51.1,296.1-4.2,417.6c-51.1,117.2-835.1,916.1-967.2,986.4c-112.9,59.7-370.7,63.9-475.1,8.5c-38.3-21.3-253.5-170.4-479.4-330.2c-225.8-161.9-421.8-300.4-436.7-311c-21.3-12.8-325.9,93.7-362.2,125.7c-4.3,2.1-49,255.6-100.1,558.2c-59.6,364.3-106.5,583.7-136.3,639.1c-55.4,108.6-189.6,225.8-298.3,257.8C5568.8,5020.9,4397.1,5016.6,4299.1,4980.4z M5649.8,3866.2c121.4-737.1,115-720.1,349.4-796.8c76.7-25.6,232.2-89.5,345.1-140.6c112.9-49,221.6-91.6,240.8-91.6c61.8,0,140.6,51.1,654,415.4l496.4,353.7l383.5-383.5l381.3-381.3l-377.1-522c-206.6-287.6-381.3-551.8-387.7-585.9c-10.7-49,10.7-115.1,80.9-272.7c53.3-117.2,117.2-274.8,142.7-351.5c76.7-234.4,59.6-228,796.8-349.4l643.4-106.5V110.2v-541.1L8756-539.6c-737.1-123.6-720.1-115-796.8-349.4c-25.6-76.7-89.5-234.3-142.7-351.5c-70.3-155.5-91.6-225.8-80.9-270.6c6.4-34.1,181.1-298.3,387.7-585.9l377.1-524.1l-379.2-379.2c-340.9-340.9-385.6-379.2-424-357.9c-23.4,12.8-262.1,181.1-528.3,372.8c-313.2,223.7-511.3,353.6-556,360c-51.1,8.5-119.3-12.8-270.6-83.1c-110.8-51.1-266.3-115.1-343-140.6c-234.3-76.7-228-59.7-349.4-796.8l-106.5-643.4H5000h-543.3l-106.5,643.4c-121.4,737.1-115,720.1-349.4,796.8c-76.7,25.5-234.4,89.5-351.5,142.7c-153.4,68.2-225.8,91.6-270.6,81c-34.1-6.4-298.3-179-588-385.6l-528.3-372.8L1881-3002.3L1499.7-2621l377.1,524.1c206.7,287.6,381.3,551.8,387.7,585.9c10.7,44.7-10.6,115-81,270.6c-53.3,117.2-117.2,274.8-142.7,351.5c-76.7,234.3-59.7,227.9-796.8,349.4L600.7-433v543.3v543.3L1244,760c737.1,121.4,720.1,115,796.8,349.4c25.6,76.7,89.5,232.2,140.6,345.1c49,112.9,91.6,221.6,91.6,240.7c0,61.8-53.3,144.9-417.6,654l-355.8,492.1l379.2,379.2c340.9,340.9,385.6,379.2,424,357.9c23.4-12.8,247.1-170.4,496.4-349.4c468.7-338.7,553.9-392,615.7-392c19.2,0,127.8,42.6,240.7,91.6c112.9,51.1,268.4,115,347.3,140.6c232.2,76.7,228,68.2,347.3,794.7c55.4,343,104.4,630.6,110.8,641.3c4.3,8.5,251.4,12.8,545.4,10.6l536.9-6.4L5649.8,3866.2z"/><path d="M4627.2,1842.3c-675.4-142.7-1222.9-694.5-1361.3-1374.1C3067.7-492.7,3691.9-1432.2,4657-1628.2c215.2-42.6,598.7-32,801,23.4c193.9,51.1,496.4,208.8,656.2,340.9c277,230.1,511.3,588,600.8,916.1c55.4,202.4,66,585.9,23.4,801c-142.7,698.8-688.1,1248.4-1380.5,1391.2C5155.5,1887,4825.3,1884.9,4627.2,1842.3z M5402.7,1311.8c517.7-170.4,862.8-651.9,862.8-1201.6c0-573.1-370.7-1058.8-935.3-1227.1c-172.6-51.1-487.9-51.1-660.4,0c-176.8,53.3-385.6,166.2-513.4,279.1C3849.6-571.5,3679.1-105,3743,289.2c87.4,549.7,509.2,980,1050.3,1078C4959.5,1397,5219.4,1373.6,5402.7,1311.8z"/></g></g>
</svg>