<?xml version="1.0" encoding="utf-8"?>
<!-- Svg Vector Icons : http://www.onlinewebfonts.com/icon -->
<!DOCTYPE svg PUBLIC "-//W3C//DTD SVG 1.1//EN" "http://www.w3.org/Graphics/SVG/1.1/DTD/svg11.dtd">
<svg version="1.1" xmlns="http://www.w3.org/2000/svg" xmlns:xlink="http://www.w3.org/1999/xlink" x="0px" y="0px" viewBox="0 0 1000 1000" enable-background="new 0 0 1000 1000" xml:space="preserve">
<metadata> Svg Vector Icons : http://www.onlinewebfonts.com/icon </metadata>
<g><path d="M982.3,408.2c-1.5-12.2-10.8-23-23.2-26c-44.4-13.8-82.8-44.5-107.2-85.9c-24.7-43-32.3-89-21.6-136.5c3-12.2-1.6-26-10.8-33.7C772,84.8,719.9,55.5,663.1,35.6c-12.2-3.1-24.5,0-33.7,7.7c-35.2,32.3-81.1,50.6-128.7,50.6s-93.5-18.3-128.9-50.6c-9.1-9.1-21.4-10.7-33.7-7.7c-56.7,18.4-108.9,49.1-156.4,90.5c-9.2,9.2-13.8,21.5-10.8,33.7c10.8,46,3.1,93.5-21.4,136.5c-24.6,41.4-61.3,72.1-108.8,87.4c-12.2,3.1-21.5,13.8-23,26.1C13,443.6,10,472.7,10,500.3c0,29.2,1.5,56.8,7.7,90.5c1.5,12.4,10.8,21.6,23,26.2c46,15.3,84.3,46.1,108.8,87.5c24.6,41.5,32.2,90.4,21.4,134.9c-3,12.2,1.5,26.1,10.8,33.7c47.5,41.5,99.6,70.6,156.4,90.5c3.1,1.5,7.7,1.5,10.8,1.5c7.7,0,16.8-3,20-7.7c35.3-32.1,81.3-50.5,128.8-50.5s93.6,18.4,128.9,50.5c9.1,7.7,23,10.8,35.2,6.2c59.9-21.6,111.8-52.2,156.4-90.5c9.2-9.2,13.8-21.5,10.8-33.7c-10.7-46.1-3.1-93.6,21.5-136.5c24.6-41.5,61.4-72.1,108.8-87.4c12.3-3.1,21.6-13.9,23.2-26.1c4.6-33.7,7.7-63,7.7-90.5C990,469.6,988.4,442,982.3,408.2z M499.2,694.6C393.6,694.6,308,609,308,503.4c0-105.6,85.6-191.2,191.2-191.2c105.6,0,191.2,85.6,191.2,191.2C690.4,608.9,604.8,694.6,499.2,694.6z"/></g>
</svg>