<svg width="50" height="50" viewBox="0 0 50 50" fill="none" xmlns="http://www.w3.org/2000/svg">
<path fill-rule="evenodd" clip-rule="evenodd" d="M16.719 12.6C16.719 12.8315 16.7518 13.0554 16.813 13.2672C12.7111 15.7657 10 20.0874 10 25C10 27.1472 10.5179 29.1815 11.4435 31H8C7.44772 31 7 31.4477 7 32V39.4V43.2C7 43.7523 7.44772 44.2 8 44.2H10.4255C10.541 44.2 10.6556 44.22 10.7642 44.2591L25.4358 49.5409C25.5444 49.58 25.659 49.6 25.7745 49.6H26.2H26.4927C26.693 49.6 26.8886 49.5399 27.0542 49.4275L30.1284 47.3414C30.1324 47.3387 30.1379 47.3398 30.1407 47.3438C30.1434 47.3479 30.1489 47.3489 30.153 47.3462L43.0642 38.6063C43.1771 38.5298 43.2815 38.4455 43.3771 38.3544C43.3844 38.3473 43.3923 38.3409 43.4007 38.3352L43.5732 38.2182C43.5865 38.2091 43.5873 38.1898 43.5747 38.1798C43.5643 38.1714 43.5628 38.156 43.5713 38.1457C44.2314 37.3454 44.3173 36.1761 43.7063 35.2735C42.9633 34.1758 41.4711 33.8884 40.3735 34.6314L31.8101 40.4281C31.6446 40.5401 31.4494 40.6 31.2495 40.6H20.9086C20.6716 40.6 20.4222 40.5289 20.2986 40.3267C20.2338 40.2207 20.2 40.1115 20.2 40C20.2 39.8884 20.2338 39.7793 20.2986 39.6733C20.4222 39.4711 20.6715 39.4 20.9086 39.4H29.8H31C32.3255 39.4 33.4 38.3255 33.4 37C33.4 36.8705 33.3897 36.7434 33.37 36.6195C37.3694 34.105 40 29.8392 40 25C40 22.694 39.4026 20.5181 38.3444 18.6H42.119C42.6713 18.6 43.119 18.1523 43.119 17.6V10.2V6.4C43.119 5.84771 42.6713 5.4 42.119 5.4H39.6935C39.5781 5.4 39.4635 5.38 39.3548 5.34089L24.6832 0.0591126C24.5746 0.0199998 24.46 0 24.3445 0H23.919H23.6263C23.4261 0 23.2304 0.0601013 23.0648 0.172524L19.9906 2.25855C19.9866 2.2613 19.9811 2.26024 19.9783 2.25619C19.9756 2.25214 19.9701 2.25108 19.966 2.25382L7.05485 10.9937C6.94189 11.0701 6.83751 11.1545 6.74195 11.2456C6.73459 11.2526 6.7267 11.2591 6.71828 11.2648L6.54579 11.3818C6.53249 11.3909 6.53173 11.4102 6.54428 11.4202C6.55475 11.4286 6.55622 11.444 6.54769 11.4543C5.88758 12.2545 5.80176 13.4239 6.41274 14.3265C7.15577 15.4241 8.64792 15.7116 9.74557 14.9686L18.3089 9.17189C18.4744 9.05987 18.6697 9 18.8695 9H29.2104C29.4475 9 29.6968 9.07108 29.8204 9.27334C29.8852 9.37928 29.919 9.48846 29.919 9.60001C29.919 9.71155 29.8852 9.82072 29.8205 9.92664C29.6969 10.1289 29.4475 10.2 29.2104 10.2H20.319H19.119C17.7935 10.2 16.719 11.2745 16.719 12.6ZM12 25C12 20.7539 14.4275 16.9343 18.1494 14.7961C18.4459 14.9272 18.774 15 19.119 15H29.683C29.8382 15 29.9913 15.0361 30.1302 15.1056L35.3099 17.6954C37.004 19.7354 38 22.2802 38 25C38 29.0878 35.7501 32.7803 32.2614 34.9578C31.8949 34.7309 31.4627 34.6 31 34.6H20.4361C20.2808 34.6 20.1277 34.5638 19.9889 34.4944L14.118 31.559C12.774 29.6593 12 27.3976 12 25ZM50 18C50 19.1046 49.1046 20 48 20H47C45.8954 20 45 19.1046 45 18V5.99999C45 4.89542 45.8954 3.99999 47 3.99999H48C49.1046 3.99999 50 4.89542 50 5.99999V18ZM2 29C0.895431 29 0 29.8954 0 31V44C0 45.1046 0.89543 46 2 46H3C4.10457 46 5 45.1046 5 44V31C5 29.8954 4.10457 29 3 29H2ZM31 25C31 28.3137 28.3137 31 25 31C21.6863 31 19 28.3137 19 25C19 21.6863 21.6863 19 25 19C28.3137 19 31 21.6863 31 25ZM21.325 26.571C21.442 26.5667 21.5308 26.5537 21.5915 26.532C21.6522 26.506 21.6998 26.454 21.7345 26.376C21.7692 26.298 21.7865 26.1745 21.7865 26.0055V23.516C21.7865 23.2733 21.7952 23.0783 21.8125 22.931L21.325 22.9505V22.45L23.171 22.437C23.7647 22.4327 24.2218 22.5367 24.5425 22.749C24.8675 22.9613 25.03 23.3058 25.03 23.7825C25.03 24.0815 24.9325 24.348 24.7375 24.582C24.5468 24.8117 24.263 24.9807 23.886 25.089V25.0955C23.964 25.1258 24.0442 25.18 24.1265 25.258C24.2088 25.3317 24.2782 25.414 24.3345 25.505L24.64 25.96C24.7873 26.1897 24.9087 26.3478 25.004 26.4345C25.1037 26.5212 25.225 26.5667 25.368 26.571V27H24.2955C24.2218 26.948 24.1482 26.8743 24.0745 26.779C24.0008 26.6793 23.9163 26.5493 23.821 26.389L23.34 25.609C23.2317 25.4357 23.1407 25.31 23.067 25.232H22.729V25.9275C22.729 26.1745 22.7203 26.3717 22.703 26.519C22.8417 26.506 23.0258 26.4995 23.2555 26.4995V27H21.325V26.571ZM23.041 24.764C23.3963 24.764 23.652 24.686 23.808 24.53C23.9683 24.3697 24.0485 24.1205 24.0485 23.7825C24.0485 23.4228 23.9553 23.1845 23.769 23.0675C23.587 22.9505 23.3855 22.892 23.1645 22.892C23.0128 22.892 22.9023 22.9245 22.833 22.9895C22.7637 23.0545 22.729 23.1932 22.729 23.4055V24.738C22.859 24.7553 22.963 24.764 23.041 24.764ZM25.6195 28.235C25.7841 28.235 25.8903 28.1895 25.938 28.0985C25.9856 28.0075 26.0095 27.8602 26.0095 27.6565V24.907C26.0095 24.712 26.0181 24.5278 26.0355 24.3545L25.574 24.374V23.88C25.847 23.88 26.068 23.8605 26.237 23.8215C26.406 23.7825 26.5186 23.737 26.575 23.685H26.8935C26.9021 23.7587 26.913 23.8627 26.926 23.997H26.9325C27.2011 23.763 27.4915 23.646 27.8035 23.646C28.0635 23.646 28.291 23.7132 28.486 23.8475C28.6853 23.9818 28.8391 24.1747 28.9475 24.426C29.0601 24.673 29.1165 24.9612 29.1165 25.2905C29.1165 25.6372 29.0493 25.9492 28.915 26.2265C28.7806 26.4995 28.59 26.714 28.343 26.87C28.1003 27.026 27.8208 27.104 27.5045 27.104C27.3355 27.104 27.1426 27.065 26.926 26.987V27.611C26.926 27.7973 26.9195 27.988 26.9065 28.183C27.0408 28.17 27.1795 28.1635 27.3225 28.1635V28.6575H25.6195V28.235ZM27.3745 26.6165C27.8988 26.6165 28.161 26.207 28.161 25.388C28.161 25.0673 28.1025 24.7943 27.9855 24.569C27.8728 24.3437 27.7016 24.231 27.472 24.231C27.3636 24.231 27.2596 24.257 27.16 24.309C27.0646 24.361 26.9866 24.4303 26.926 24.517V26.4995C26.9693 26.5298 27.0321 26.558 27.1145 26.584C27.2011 26.6057 27.2878 26.6165 27.3745 26.6165Z" fill="#408EC6"/>
</svg>
