<svg width="30" height="51" viewBox="0 0 30 51" fill="none" xmlns="http://www.w3.org/2000/svg">
<path d="M8.48416 1.9565L25.4473 3.53446C28.0182 3.77362 29.9842 5.93097 29.9842 8.51297V12.2003C29.9842 14.8646 27.8949 17.061 25.2338 17.194L9.98416 17.9565L8.48416 1.9565Z" fill="white"/>
<path d="M10.4842 32.9565L25.2402 33.7132C27.8986 33.8495 29.9842 36.0448 29.9842 38.7067V42.2932C29.9842 44.9196 27.9522 47.0983 25.3322 47.2811L8.48416 48.4565L10.4842 32.9565Z" fill="white"/>
<rect x="16.9842" y="9.9565" width="13" height="31" fill="white"/>
<ellipse cx="16.8601" cy="3.34102" rx="10.5615" ry="1.40294" transform="rotate(5.8 16.8601 3.34102)" fill="white"/>
<ellipse cx="17.3817" cy="47.5292" rx="9.76378" ry="0.804232" transform="rotate(-4.6 17.3817 47.5292)" fill="white"/>
<rect x="3.01367" y="2.74753" width="5" height="17.2134" rx="2.5" transform="rotate(-20 3.01367 2.74753)" fill="white"/>
<rect x="9.2269" y="31.9415" width="5" height="16.6064" rx="2.5" transform="rotate(18 9.2269 31.9415)" fill="white"/>
</svg>
