<svg width="48" height="45" viewBox="0 0 48 45" fill="none" xmlns="http://www.w3.org/2000/svg">
<path fill-rule="evenodd" clip-rule="evenodd" d="M28.3279 14.5292C27.1663 13.9505 26.6606 12.5966 27.1605 11.4037L28.6612 7.823C30.1138 4.35711 34.42 2.99185 37.6076 4.98657L39.8023 6.35995C42.0764 7.783 43.0369 10.4837 42.2934 12.9519C42.2318 13.412 42.1116 13.875 41.9282 14.3327C39.9071 19.3758 37.0136 26.2337 34.6767 30.3447C32.4646 34.236 28.9284 38.8073 26.1853 42.143C25.6706 42.7689 25.0548 43.2587 24.3817 43.611C22.7644 44.5473 20.7459 44.7461 18.9201 43.9982L16.8284 43.1415C13.3327 41.7097 12.089 37.5013 14.244 34.3965L16.5005 31.1456C17.2228 30.105 18.6295 29.7612 19.7449 30.3526C19.9587 30.466 20.1536 30.6101 20.3231 30.7802L21.6048 32.0659C27.9323 27.1315 29.8482 23.1159 30.643 15.0427L29.0224 14.7575C28.7803 14.7149 28.5463 14.6379 28.3279 14.5292ZM21.616 26.2382C21.616 27.4744 20.5827 28.4765 19.308 28.4765C18.0333 28.4765 17 27.4744 17 26.2382C17 25.0021 18.0333 24 19.308 24C20.5827 24 21.616 25.0021 21.616 26.2382ZM18.6752 7.10476C17.1572 7.39077 16.1038 8.78176 16.2399 10.3205L17.1217 20.2888C17.2183 21.3818 18.1339 22.22 19.2312 22.22C20.3285 22.22 21.2441 21.3818 21.3408 20.2888L22.2226 10.3205C22.3587 8.78176 21.3053 7.39077 19.7872 7.10476C19.4198 7.03553 19.0427 7.03553 18.6752 7.10476Z" fill="#408EC6"/>
<path fill-rule="evenodd" clip-rule="evenodd" d="M28.0964 5.49722C28.7158 4.63636 29.4841 3.96099 30.3017 3.50329C27.266 1.42797 23.6845 0.17392 19.849 0.17392C8.88668 0.17392 0.461548 10.4176 0.461548 20.8011C0.461548 28.2179 4.75999 34.6316 11.2112 37.6912L13.677 33.3245C8.70047 31.1155 5.46155 26.2886 5.46155 20.8011C5.46155 12.6755 12.126 5.17392 19.849 5.17392C22.4434 5.17392 24.9411 6.00667 27.1239 7.40853C27.3311 6.76021 27.6548 6.11086 28.0964 5.49722Z" fill="#408EC6"/>
</svg>
