<svg width="39" height="46" viewBox="0 0 39 46" fill="none" xmlns="http://www.w3.org/2000/svg">
<path fill-rule="evenodd" clip-rule="evenodd" d="M5 5.85379H9V8.85379C9 9.19626 9.03443 9.53068 9.10002 9.85379H5C4.44772 9.85379 4 10.3015 4 10.8538V40.8538C4 41.4061 4.44772 41.8538 5 41.8538H34C34.5523 41.8538 35 41.4061 35 40.8538V10.8538C35 10.3015 34.5523 9.85379 34 9.85379H29.9C29.9656 9.53068 30 9.19626 30 8.85379V5.85379H34C36.7614 5.85379 39 8.09237 39 10.8538V40.8538C39 43.6152 36.7614 45.8538 34 45.8538H5C2.23858 45.8538 0 43.6152 0 40.8538V10.8538C0 8.09237 2.23858 5.85379 5 5.85379ZM20 17.8538C18.8954 17.8538 18 18.7492 18 19.8538C18 20.9584 18.8954 21.8538 20 21.8538H31C32.1046 21.8538 33 20.9584 33 19.8538C33 18.7492 32.1046 17.8538 31 17.8538H20ZM18 35.8538C18 34.7492 18.8954 33.8538 20 33.8538L31 33.8538C32.1046 33.8538 33 34.7492 33 35.8538C33 36.9583 32.1046 37.8538 31 37.8538L20 37.8538C18.8954 37.8538 18 36.9584 18 35.8538ZM20 25.8538C18.8954 25.8538 18 26.7492 18 27.8538C18 28.9584 18.8954 29.8538 20 29.8538H31C32.1046 29.8538 33 28.9584 33 27.8538C33 26.7492 32.1046 25.8538 31 25.8538H20Z" fill="#408EC6"/>
<rect x="11" y="2.85379" width="17" height="9" rx="3" stroke="#408EC6" stroke-width="4"/>
<path fill-rule="evenodd" clip-rule="evenodd" d="M10.4871 23.0494C9.94955 23.0576 9.40924 22.8681 8.99907 22.481L6.6108 20.2266C5.80755 19.4684 5.80755 18.2392 6.6108 17.481C7.41405 16.7228 8.71637 16.7228 9.51962 17.481L10.6557 18.5533L13.6255 16.1505C14.4843 15.4558 15.7823 15.5554 16.5249 16.3732C17.2675 17.1909 17.1733 18.417 16.3146 19.1118L12.0083 22.5958C11.5713 22.9494 11.0205 23.0972 10.4871 23.0494Z" fill="#408EC6"/>
<path fill-rule="evenodd" clip-rule="evenodd" d="M10.0696 38.5892C9.72726 38.5079 9.40243 38.3403 9.13251 38.086L6.65439 35.7517C5.85005 34.9941 5.83789 33.754 6.62723 32.9819C7.41656 32.2099 8.70849 32.1982 9.51283 32.9558L10.7867 34.1558L13.6456 31.8037C14.4986 31.1019 15.7865 31.2009 16.5222 32.0247C17.2579 32.8486 17.1629 34.0854 16.3099 34.7872L12.1062 38.2458C11.5251 38.7239 10.7422 38.8304 10.0696 38.5892Z" fill="#408EC6"/>
<path fill-rule="evenodd" clip-rule="evenodd" d="M11.4261 30.6152C10.6427 31.0638 9.61348 30.9643 8.93901 30.3169L6.58087 28.0534C5.784 27.2885 5.784 26.0483 6.58087 25.2835C7.37774 24.5186 8.66973 24.5186 9.4666 25.2835L10.5653 26.338L13.6457 23.8037C14.4987 23.1019 15.7865 23.2009 16.5223 24.0247C17.258 24.8486 17.1629 26.0854 16.3099 26.7872L12.1062 30.2458C11.9002 30.4153 11.6689 30.5381 11.4261 30.6152Z" fill="#408EC6"/>
</svg>
